<svg width="1149" height="427" viewBox="0 0 1149 427" fill="none" xmlns="http://www.w3.org/2000/svg">
<g filter="url(#filter0_b_221_125)">
<path d="M7.808 3.39999H91.616V32.2H39.488V88.36H80.384V117.16H39.488V205H7.808V3.39999ZM152.888 207.88C137.528 207.88 125.816 203.56 117.752 194.92C109.688 186.088 105.656 173.512 105.656 157.192V3.39999H137.336V159.496C137.336 166.408 138.68 171.4 141.368 174.472C144.248 177.544 148.28 179.08 153.464 179.08C158.648 179.08 162.584 177.544 165.272 174.472C168.152 171.4 169.592 166.408 169.592 159.496V3.39999H200.12V157.192C200.12 173.512 196.088 186.088 188.024 194.92C179.96 203.56 168.248 207.88 152.888 207.88ZM222.683 3.39999L254.363 3.39999V176.2H306.491V205H222.683V3.39999ZM321.683 3.39999H353.363V176.2H405.491V205H321.683V3.39999ZM461.867 207.88C446.507 207.88 434.891 203.56 427.019 194.92C419.147 186.088 415.211 173.512 415.211 157.192V145.672H445.163V159.496C445.163 172.552 450.635 179.08 461.579 179.08C466.955 179.08 470.987 177.544 473.675 174.472C476.555 171.208 477.995 166.024 477.995 158.92C477.995 150.472 476.075 143.08 472.235 136.744C468.395 130.216 461.291 122.44 450.923 113.416C437.867 101.896 428.747 91.528 423.563 82.312C418.379 72.904 415.787 62.344 415.787 50.632C415.787 34.696 419.819 22.408 427.883 13.768C435.947 4.93599 447.659 0.519989 463.019 0.519989C478.187 0.519989 489.611 4.93599 497.291 13.768C505.163 22.408 509.099 34.888 509.099 51.208V59.56H479.147V49.192C479.147 42.28 477.803 37.288 475.115 34.216C472.427 30.952 468.491 29.32 463.307 29.32C452.747 29.32 447.467 35.752 447.467 48.616C447.467 55.912 449.387 62.728 453.227 69.064C457.259 75.4 464.459 83.08 474.827 92.104C488.075 103.624 497.195 114.088 502.187 123.496C507.179 132.904 509.675 143.944 509.675 156.616C509.675 173.128 505.547 185.8 497.291 194.632C489.227 203.464 477.419 207.88 461.867 207.88ZM552.607 32.2H519.487V3.39999H617.407V32.2H584.287V205H552.607V32.2ZM644.007 3.39999H686.919L719.751 205H688.071L682.311 164.968V165.544H646.311L640.551 205H611.175L644.007 3.39999ZM678.567 138.184L664.455 38.536H663.879L650.055 138.184H678.567ZM779.198 207.88C764.03 207.88 752.414 203.56 744.35 194.92C736.478 186.28 732.542 174.088 732.542 158.344V50.056C732.542 34.312 736.478 22.12 744.35 13.48C752.414 4.83999 764.03 0.519989 779.198 0.519989C794.366 0.519989 805.886 4.83999 813.758 13.48C821.822 22.12 825.854 34.312 825.854 50.056V71.368H795.902V48.04C795.902 35.56 790.622 29.32 780.062 29.32C769.502 29.32 764.222 35.56 764.222 48.04V160.648C764.222 172.936 769.502 179.08 780.062 179.08C790.622 179.08 795.902 172.936 795.902 160.648V129.832H825.854V158.344C825.854 174.088 821.822 186.28 813.758 194.92C805.886 203.56 794.366 207.88 779.198 207.88ZM844.808 3.39999H876.488V88.36L916.808 3.39999H948.488L910.76 77.416L949.064 205H915.944L889.16 115.144L876.488 140.776V205H844.808V3.39999ZM0.32 222.4H30.848L44.96 377.344H45.536L60.512 222.4H95.072L110.048 377.344H110.624L124.736 222.4H152.096L131.648 424H92.192L77.792 288.064H77.216L62.816 424H20.768L0.32 222.4ZM168.121 222.4H254.521V251.2H199.801V304.48H243.289V333.28H199.801V395.2H254.521V424H168.121V222.4ZM272.746 222.4H320.554C336.874 222.4 348.778 226.24 356.266 233.92C363.754 241.408 367.498 253.024 367.498 268.768V276.832C367.498 287.2 365.77 295.648 362.314 302.176C359.05 308.704 353.962 313.408 347.05 316.288V316.864C362.794 322.24 370.666 336.256 370.666 358.912V376.192C370.666 391.744 366.538 403.648 358.282 411.904C350.218 419.968 338.314 424 322.57 424H272.746V222.4ZM316.81 304.48C323.146 304.48 327.85 302.848 330.922 299.584C334.186 296.32 335.818 290.848 335.818 283.168V271.936C335.818 264.64 334.474 259.36 331.786 256.096C329.29 252.832 325.258 251.2 319.69 251.2H304.426V304.48H316.81ZM322.57 395.2C328.138 395.2 332.266 393.76 334.953 390.88C337.642 387.808 338.986 382.624 338.986 375.328V357.76C338.986 348.544 337.354 342.208 334.09 338.752C331.018 335.104 325.834 333.28 318.538 333.28H304.426V395.2H322.57ZM459.788 222.4H502.7L535.532 424H503.852L498.092 383.968V384.544H462.092L456.332 424H426.956L459.788 222.4ZM494.348 357.184L480.236 257.536H479.66L465.836 357.184H494.348ZM550.902 222.4H597.846C614.166 222.4 626.07 226.24 633.558 233.92C641.046 241.408 644.79 253.024 644.79 268.768V281.152C644.79 302.08 637.878 315.328 624.054 320.896V321.472C631.734 323.776 637.11 328.48 640.182 335.584C643.446 342.688 645.078 352.192 645.078 364.096V399.52C645.078 405.28 645.27 409.984 645.654 413.632C646.038 417.088 646.998 420.544 648.534 424H616.278C615.126 420.736 614.358 417.664 613.974 414.784C613.59 411.904 613.398 406.72 613.398 399.232V362.368C613.398 353.152 611.862 346.72 608.79 343.072C605.91 339.424 600.822 337.6 593.526 337.6H582.582V424H550.902V222.4ZM594.102 308.8C600.438 308.8 605.142 307.168 608.214 303.904C611.478 300.64 613.11 295.168 613.11 287.488V271.936C613.11 264.64 611.766 259.36 609.078 256.096C606.582 252.832 602.55 251.2 596.982 251.2H582.582V308.8H594.102ZM691.264 251.2H658.144V222.4H756.064V251.2H722.944V424H691.264V251.2ZM771.402 222.4H803.082V424H771.402V222.4ZM867.992 426.88C852.632 426.88 841.016 422.56 833.144 413.92C825.272 405.088 821.336 392.512 821.336 376.192V364.672H851.288V378.496C851.288 391.552 856.76 398.08 867.704 398.08C873.08 398.08 877.112 396.544 879.8 393.472C882.68 390.208 884.12 385.024 884.12 377.92C884.12 369.472 882.2 362.08 878.36 355.744C874.52 349.216 867.416 341.44 857.048 332.416C843.992 320.896 834.872 310.528 829.688 301.312C824.504 291.904 821.912 281.344 821.912 269.632C821.912 253.696 825.944 241.408 834.008 232.768C842.072 223.936 853.784 219.52 869.144 219.52C884.312 219.52 895.736 223.936 903.416 232.768C911.288 241.408 915.224 253.888 915.224 270.208V278.56H885.272V268.192C885.272 261.28 883.928 256.288 881.24 253.216C878.552 249.952 874.616 248.32 869.432 248.32C858.872 248.32 853.592 254.752 853.592 267.616C853.592 274.912 855.512 281.728 859.352 288.064C863.384 294.4 870.584 302.08 880.952 311.104C894.2 322.624 903.32 333.088 908.312 342.496C913.304 351.904 915.8 362.944 915.8 375.616C915.8 392.128 911.672 404.8 903.416 413.632C895.352 422.464 883.544 426.88 867.992 426.88ZM957.601 222.4H1000.51L1033.34 424H1001.66L995.905 383.968V384.544H959.905L954.145 424H924.769L957.601 222.4ZM992.161 357.184L978.049 257.536H977.473L963.648 357.184H992.161ZM1048.71 222.4H1088.46L1119.27 343.072H1119.85V222.4H1148.07V424H1115.53L1077.51 276.832H1076.94V424H1048.71V222.4Z" fill="white" fill-opacity="0.6"/>
</g>
<defs>
<filter id="filter0_b_221_125" x="-19.6802" y="-19.4805" width="1187.75" height="466.36" filterUnits="userSpaceOnUse" color-interpolation-filters="sRGB">
<feFlood flood-opacity="0" result="BackgroundImageFix"/>
<feGaussianBlur in="BackgroundImage" stdDeviation="10"/>
<feComposite in2="SourceAlpha" operator="in" result="effect1_backgroundBlur_221_125"/>
<feBlend mode="normal" in="SourceGraphic" in2="effect1_backgroundBlur_221_125" result="shape"/>
</filter>
</defs>
</svg>
